<svg xmlns="http://www.w3.org/2000/svg" viewBox="0 0 17 18.833"><style/><path d="M6.101 9.801h-1.8v-1.8h1.8v1.8zm3.6-1.8h-1.8v1.8h1.8v-1.8zm3.599 0h-1.8v1.8h1.8v-1.8zm-7.199 2.7h-1.8v1.8h1.8v-1.8zm3.6 0h-1.8v1.8h1.8v-1.8zm3.599 0h-1.8v1.8h1.8v-1.8zM6.101 13.4h-1.8v1.8h1.8v-1.8zm3.6 0h-1.8v1.8h1.8v-1.8zm-4.5-8.098a.9.9 0 00.9-.9v-.9a.9.9 0 00-1.8 0v.9c.001.497.404.9.9.9zM16 4.402V17H1.602V4.402h2.25c0 .744.606 1.35 1.35 1.35.744 0 1.35-.606 1.35-1.35h4.499c0 .744.605 1.35 1.35 1.35s1.35-.606 1.35-1.35H16zm-.9 2.699H2.502V16.1H15.1V7.101zm-2.7-1.799a.9.9 0 00.9-.9v-.9a.9.9 0 00-1.8 0v.9a.9.9 0 00.9.9zm0 0" fill="gray" id="Capa_1"/></svg>