<svg xmlns="http://www.w3.org/2000/svg" viewBox="0 0 77.5 56.25"><style/><path d="M47.815 10.423l-5.77 7.559 3.694-8.821c.091-.459.459-.723.723-.723.092 0 .172.091.356.172l.539.264.539.264c.469.298.378.734-.081 1.285zm-7.823 8.282L41.61 6.007c.172-.895-.092-1.526-.723-1.526h-1.801c-.631 0-.894.539-.723 1.526l1.629 12.698zM42.24 32.47c.539 1.262.723 2.076.723 3.235v11.976a.888.888 0 01-.894.895h-4.68c-.539 0-.895-.356-.895-.895V44.71h-24.95v2.971a.888.888 0 01-.895.895H5.945c-.539 0-.894-.356-.894-.895V35.706c0-1.182.172-2.076.723-3.235l5.85-12.24c.631-1.445 2.432-2.604 4.049-2.604h16.565c1.617 0 3.43 1.182 4.152 2.604l5.85 12.239zm-31.971-.527h27.359l-3.957-8.454c-.814-1.617-1.526-1.985-3.235-1.985H16.842c-1.261.172-1.893.631-2.512 1.985l-4.061 8.454zm3.786 6.114c0-1.618-1.354-2.88-2.971-2.88a2.845 2.845 0 00-2.879 2.88c0 1.618 1.262 2.971 2.879 2.971s2.971-1.342 2.971-2.971zm25.742 0c0-1.618-1.354-2.88-2.971-2.88a2.846 2.846 0 00-2.88 2.88c0 1.618 1.262 2.971 2.88 2.971 1.617.012 2.971-1.342 2.971-2.971zm-1.79-19.271l-3.694-8.822c-.172-.459-.459-.723-.723-.723h-.264c-.092 0-.092.092-.172.092l-.539.264-.459.356c-.459.264-.356.723.092 1.262l5.759 7.571zm36.984 17.286l-2.708 10.175-.356 1.353c-.091.459-.631.723-1.078.631l-4.497-1.182c-.459-.092-.723-.631-.631-1.078l.356-1.353.459-1.446-22.243-5.942v-1.709c0-.723-.092-1.526-.264-2.248a2.934 2.934 0 002.604-2.168c.459-1.526-.539-3.143-2.076-3.602-.986-.172-1.985.092-2.707.723l-2.076-4.325c.092-.092.172-.264.264-.356l8.821-10.267c.814-.986 2.168-1.526 3.43-1.618.459 0 .814 0 1.181.092l15.762 4.05c1.617.459 3.063 2.076 3.327 3.602l2.512 13.33c.287 1.354.207 2.272-.08 3.338zm-3.866-4.668l-1.71-9.177c-.356-1.79-.986-2.34-2.604-2.8l-12.515-3.43c-.631-.172-1.078-.172-1.526-.172-.723.092-1.354.539-2.076 1.353l-6.125 7.101 26.556 7.125zm-1.71 2.879c-.172-.092-.356-.092-.539-.092h-.539c-1.181.092-2.168.895-2.432 2.168-.459 1.526.459 3.143 1.985 3.602 1.526.459 3.143-.539 3.602-2.076.435-1.549-.539-3.166-2.077-3.602zm0 0" fill="#611ac5" id="Capa_1"/></svg>