<svg xmlns="http://www.w3.org/2000/svg" xmlns:xlink="http://www.w3.org/1999/xlink" viewBox="0 0 28.875 21"><style>.st9{fill:#611ac5}</style><g id="Capa_1"><defs><path id="SVGID_115_" d="M.95.915h27.265V20.43H.95z"/></defs><clipPath id="SVGID_1_"><use xlink:href="#SVGID_115_" overflow="visible"/></clipPath><path d="M25.496 20.406H3.691A2.73 2.73 0 01.95 17.665V3.656A2.73 2.73 0 013.691.915h21.744a2.73 2.73 0 012.741 2.741v14.07c.061 1.461-1.157 2.68-2.68 2.68zM3.691 2.742a.936.936 0 00-.913.913v14.07c0 .487.426.914.913.914h21.744a.937.937 0 00.914-.914V3.656a.937.937 0 00-.914-.913H3.691zm0 0" clip-path="url(#SVGID_1_)" fill="#611ac5"/><path class="st9" d="M1.864 5.179h25.399V8.59H1.864zm22.17 9.562a2.01 2.01 0 11-4.02 0 2.01 2.01 0 014.02 0zm0 0"/><path class="st9" d="M21.354 14.741a2.01 2.01 0 11-4.02 0 2.01 2.01 0 014.02 0zm-10.11-3.228H5.335c-.183 0-.304-.122-.304-.304 0-.183.122-.305.304-.305h5.908c.183 0 .304.122.304.305.001.121-.121.304-.303.304zm0 0"/></g></svg>