<svg xmlns="http://www.w3.org/2000/svg" xmlns:xlink="http://www.w3.org/1999/xlink" viewBox="0 0 64 50"><style/><g id="Capa_1"><defs><path id="SVGID_294_" d="M3.141 6.925H60V44.55H3.141z"/></defs><clipPath id="SVGID_1_"><use xlink:href="#SVGID_294_" overflow="visible"/></clipPath><path d="M59.591 18.123c-.135-.393-.614-.699-1.014-.699h-5.193c-.399 0-.879.306-1.014.699a8.556 8.556 0 00-.297 1.051l-3.469-9.598a4.02 4.02 0 00-3.771-2.645H18.301a4.02 4.02 0 00-3.771 2.646l-3.47 9.598a8.358 8.358 0 00-.297-1.053c-.135-.393-.614-.699-1.013-.699H4.557c-.399 0-.878.306-1.013.699-.526 1.532-.526 2.408 0 3.939.135.394.614.7 1.014.7h5.193l.015-.001-.078.217a2.662 2.662 0 00-1.823 2.526v17.593c0 .707.572 1.28 1.28 1.28h6.441a1.28 1.28 0 001.28-1.28v-6.231H46.27v6.231c0 .707.573 1.28 1.28 1.28h6.441a1.28 1.28 0 001.28-1.28V25.503a2.663 2.663 0 00-1.823-2.526l-.079-.217.015.001h5.193c.4 0 .879-.306 1.014-.699.526-1.532.526-2.408 0-3.939zm-40.799-6.482H44.34l4.048 11.199H14.743l4.049-11.199zm.712 19.088h-5.389a2.093 2.093 0 110-4.186h5.389a2.093 2.093 0 110 4.186zm29.516 0h-5.39a2.093 2.093 0 110-4.186h5.39a2.093 2.093 0 110 4.186zm0 0" clip-path="url(#SVGID_1_)" fill="#611ac5"/></g></svg>