<svg xmlns="http://www.w3.org/2000/svg" viewBox="0 0 57 53.75"><style>.st10{fill:#611ac5}</style><g id="Capa_1"><path class="st10" d="M53.062 24.407l-7.723-7.723V7.762a2.92 2.92 0 00-5.842 0v3.08l-5.75-5.75c-2.843-2.841-7.786-2.836-10.623.005l-19.31 19.31a2.922 2.922 0 004.132 4.131l19.308-19.31c.629-.626 1.738-.626 2.364-.002L48.93 28.537a2.915 2.915 0 002.066.855 2.92 2.92 0 002.066-4.985zm0 0"/><path class="st10" d="M29.453 14.771a1.433 1.433 0 00-2.029 0l-16.985 16.98c-.268.268-.42.634-.42 1.016v12.385a5.262 5.262 0 005.262 5.262h8.409V37.39h9.494v13.023h8.41a5.262 5.262 0 005.262-5.262V32.767c0-.382-.151-.748-.42-1.016l-16.983-16.98zm0 0"/></g></svg>